<?xml version="1.0" encoding="UTF-8"?>
<svg id="Layer_1" data-name="Layer 1" xmlns="http://www.w3.org/2000/svg" viewBox="0 0 100 100">
  <defs>
    <style>
      .cls-1 {
        fill: #fff;
      }

      .cls-1, .cls-2 {
        stroke-width: 0px;
      }

      .cls-2 {
        fill: #007878;
      }
    </style>
  </defs>
  <g id="stove">
    <path class="cls-2" d="m76.77,98H23.23c-1.23,0-2.23-1.02-2.23-2.27v-15.91c0-1.25,1-2.27,2.23-2.27h53.54c1.23,0,2.23,1.02,2.23,2.27v15.91c0,1.25-1,2.27-2.23,2.27Zm1.07-56.57v-9.25c0-1.2-.96-2.18-2.14-2.18H24.3c-1.18,0-2.14.98-2.14,2.18v9.25c-.69.39-1.16,1.13-1.16,1.99v30.92c0,1.26,1,2.27,2.23,2.27h53.54c1.23,0,2.23-1.02,2.23-2.27v-30.92c0-.86-.47-1.61-1.16-1.99Z"/>
    <path class="cls-1" d="m72.08,36.59c0,.91-.72,1.64-1.61,1.64s-1.61-.73-1.61-1.64.72-1.64,1.61-1.64,1.61.73,1.61,1.64Zm-7.93,0c0,.91-.72,1.64-1.61,1.64s-1.61-.73-1.61-1.64.72-1.64,1.61-1.64,1.61.73,1.61,1.64Zm0,0c0,.91-.72,1.64-1.61,1.64s-1.61-.73-1.61-1.64.72-1.64,1.61-1.64,1.61.73,1.61,1.64Zm-25.08,0c0,.91-.72,1.64-1.61,1.64s-1.61-.73-1.61-1.64.72-1.64,1.61-1.64,1.61.73,1.61,1.64Zm17.07-2.42v5h-12.27v-5h12.27Zm8.02,2.42c0,.91-.72,1.64-1.61,1.64s-1.61-.73-1.61-1.64.72-1.64,1.61-1.64,1.61.73,1.61,1.64Zm0,0c0,.91-.72,1.64-1.61,1.64s-1.61-.73-1.61-1.64.72-1.64,1.61-1.64,1.61.73,1.61,1.64Zm-8.02-2.42v5h-12.27v-5h12.27Zm-17.07,2.42c0,.91-.72,1.64-1.61,1.64s-1.61-.73-1.61-1.64.72-1.64,1.61-1.64,1.61.73,1.61,1.64Zm36.63-4.41v9.05H24.3v-9.05h51.4Zm-43.45,4.41c0-1.53-1.22-2.78-2.73-2.78s-2.72,1.25-2.72,2.78,1.22,2.78,2.72,2.78,2.73-1.25,2.73-2.78Zm7.93,0c0-1.53-1.22-2.78-2.72-2.78s-2.73,1.25-2.73,2.78,1.22,2.78,2.73,2.78,2.72-1.25,2.72-2.78Zm17.07-2.76c0-.44-.35-.8-.78-.8h-12.94c-.43,0-.78.36-.78.8v5.69c0,.44.35.8.78.8h12.94c.43,0,.78-.36.78-.8v-5.69Zm8.02,2.76c0-1.53-1.22-2.78-2.73-2.78s-2.72,1.25-2.72,2.78,1.22,2.78,2.72,2.78,2.73-1.25,2.73-2.78Zm7.93,0c0-1.53-1.22-2.78-2.72-2.78s-2.73,1.25-2.73,2.78,1.22,2.78,2.73,2.78,2.72-1.25,2.72-2.78Zm-9.05,0c0,.91-.72,1.64-1.61,1.64s-1.61-.73-1.61-1.64.72-1.64,1.61-1.64,1.61.73,1.61,1.64Zm-20.28-2.42h12.27v5h-12.27v-5Zm-4.8,2.42c0,.91-.72,1.64-1.61,1.64s-1.61-.73-1.61-1.64.72-1.64,1.61-1.64,1.61.73,1.61,1.64Zm-7.93,0c0,.91-.72,1.64-1.61,1.64s-1.61-.73-1.61-1.64.72-1.64,1.61-1.64,1.61.73,1.61,1.64Zm25-2.42v5h-12.27v-5h12.27Zm8.02,2.42c0,.91-.72,1.64-1.61,1.64s-1.61-.73-1.61-1.64.72-1.64,1.61-1.64,1.61.73,1.61,1.64Zm0,0c0,.91-.72,1.64-1.61,1.64s-1.61-.73-1.61-1.64.72-1.64,1.61-1.64,1.61.73,1.61,1.64Zm-8.02-2.42v5h-12.27v-5h12.27Zm15.84,17.95v16.71c0,.22-.15.4-.34.4H28.37c-.19,0-.34-.18-.34-.4v-16.71c0-.22.15-.4.34-.4h43.26c.19,0,.34.18.34.4Zm-26.92,9.69c.97-1.67,1.11-3.75.37-5.55l-1.09-2.65-2.06.88,1.09,2.65c.47,1.14.38,2.45-.23,3.51-1.08,1.86-1.12,4.19-.11,6.1l.79,1.48,1.96-1.08-.78-1.48c-.64-1.2-.61-2.68.07-3.85Zm5.95,0c.97-1.67,1.11-3.75.37-5.55l-1.09-2.65-2.06.88,1.09,2.65c.47,1.14.38,2.45-.23,3.51-1.08,1.86-1.12,4.19-.11,6.1l.79,1.48,1.96-1.08-.79-1.48c-.64-1.2-.61-2.68.07-3.85Zm5.95,0c.97-1.67,1.11-3.75.37-5.55l-1.09-2.65-2.06.88,1.09,2.65c.47,1.14.38,2.45-.23,3.51-1.08,1.86-1.12,4.19-.11,6.1l.79,1.48,1.96-1.08-.79-1.48c-.64-1.2-.61-2.68.07-3.85Zm19.81-18.38v30.92H23.23v-30.92h53.54Zm-49.97,5.08c0,.44.35.8.78.8h44.62c.43,0,.78-.36.78-.8v-1.59c0-.44-.35-.8-.78-.8H27.58c-.43,0-.78.36-.78.8v1.59Zm46.29,3.62c0-.84-.65-1.53-1.46-1.53H28.37c-.81,0-1.46.69-1.46,1.53v16.71c0,.84.65,1.53,1.46,1.53h43.26c.81,0,1.46-.69,1.46-1.53v-16.71Zm-1.23-3.96H27.92v-.91h43.95v.91Zm-43.95,36.39h43.95v-.91H27.92v.91Zm48.85-4.74v15.91H23.23v-15.91h53.54Zm-3.79,3.49c0-.44-.35-.8-.78-.8H27.58c-.43,0-.78.36-.78.8v1.59c0,.44.35.8.78.8h44.62c.43,0,.78-.36.78-.8v-1.59Z"/>
  </g>
</svg>