<?xml version="1.0" encoding="UTF-8"?>
<svg id="Layer_1" data-name="Layer 1" xmlns="http://www.w3.org/2000/svg" viewBox="0 0 100 100">
  <defs>
    <style>
      .cls-1 {
        fill: #fff;
      }

      .cls-1, .cls-2 {
        stroke-width: 0px;
      }

      .cls-2 {
        fill: #007979;
      }
    </style>
  </defs>
  <g id="fridge">
    <path class="cls-2" d="m76.79,98H23.21c-1.22,0-2.21-1.1-2.21-2.46v-21.46c0-1.35.99-2.46,2.21-2.46h53.59c1.22,0,2.21,1.1,2.21,2.46v21.46c0,1.35-.99,2.46-2.21,2.46Zm-.22-96H23.21c-1.22,0-2.21.98-2.21,2.18v64.6c0,1.2.99,2.18,2.21,2.18h53.37c1.22,0,2.21-.98,2.21-2.18V4.18c0-1.2-.99-2.18-2.21-2.18Z"/>
    <path class="cls-1" d="m54.72,15.18v42.99h.88V15.18h-.88Zm-3.7-11v64.6h25.56V4.18h-25.56Zm5.69,54.31c0,.42-.35.76-.77.76h-1.54c-.43,0-.77-.34-.77-.76V14.85c0-.42.35-.76.77-.76h1.54c.43,0,.77.34.77.76v43.64Zm-1.98-.33h.88V15.18h-.88v42.99Zm0-42.99v42.99h.88V15.18h-.88Zm-26.55,61.66v.87h43.44v-.87H28.17Zm48.55-3.02H23.28s-.07.14-.07.27v21.46c0,.13.04.23.07.27h53.44s.07-.14.07-.27v-21.46c0-.13-.04-.23-.07-.27Zm-4.01,4.22c0,.42-.35.76-.77.76H27.84c-.43,0-.77-.34-.77-.76v-1.53c0-.42.35-.76.77-.76h44.11c.43,0,.77.34.77.76v1.53Zm-44.55-.33h43.44v-.87H28.17v.87Zm0-.87v.87h43.44v-.87H28.17Zm15.96-61.66v42.99h.88V15.18h-.88Zm0,0v42.99h.88V15.18h-.88Zm-17.13,17.54v9.82h13.23v-9.82h-13.23Zm9.26,3.9l.26.14c.18.1.19.36,0,.46-.04.02-.09.03-.13.03s-.09-.01-.13-.03l-.6-.32c-.12-.06-.26-.06-.37,0l-.79.45c-.1.06-.1.2,0,.26l.78.45c.11.07.26.07.37,0l.6-.32c.08-.04.18-.04.26,0,.09.05.13.14.13.23s-.05.18-.14.23l-.26.14c-.11.06-.11.2,0,.26l.5.28c.16.09.22.3.13.46-.06.11-.18.17-.3.17-.06,0-.12-.02-.17-.05l-.49-.28c-.1-.06-.24.02-.23.13v.3c.01.21-.21.34-.39.24-.08-.05-.14-.13-.15-.22l-.03-.73c0-.1-.06-.2-.15-.25l-.84-.48c-.1-.06-.23.01-.23.13v.89c0,.13.07.25.18.32l.62.38c.08.05.13.12.13.22,0,.16-.12.28-.27.28-.05,0-.09-.01-.14-.04l-.29-.18c-.1-.06-.23.01-.23.13v.58c0,.09-.02.18-.08.24-.06.06-.13.1-.23.1-.19,0-.33-.15-.33-.34v-.53c0-.12-.16-.19-.26-.13l-.22.13c-.17.1-.36.04-.41-.15-.03-.12.02-.23.11-.29l.57-.33c.11-.07.21-.19.21-.32v-.89c0-.12-.15-.19-.25-.13l-.93.52h0s-.04.89-.04.89c0,.09-.06.17-.14.22-.18.1-.41-.03-.4-.24v-.3c0-.12-.12-.19-.22-.14l-.46.28c-.16.09-.36.04-.45-.12-.03-.06-.05-.13-.05-.19,0-.11.05-.21.15-.27l.47-.28c.1-.06.1-.21,0-.26l-.27-.14c-.09-.05-.14-.14-.14-.23s.05-.18.13-.23c.08-.05.18-.05.26,0l.6.32c.12.06.26.06.37,0l.78-.45c.1-.06.1-.2,0-.26l-.79-.45c-.11-.07-.26-.07-.37,0l-.6.32s-.08.03-.13.03c-.05,0-.09-.01-.13-.03-.18-.1-.18-.36,0-.46l.26-.14c.11-.05.11-.2,0-.26l-.47-.28c-.16-.09-.19-.3-.1-.46.06-.11.17-.17.28-.17.06,0,.11.02.17.05l.47.28c.1.06.22-.02.22-.14v-.29c-.02-.16.11-.27.26-.27.04,0,.09.01.13.04.08.04.13.13.13.22l.02.68c0,.13.07.25.19.32l.77.43c.1.06.25-.01.25-.13v-.88c0-.13-.09-.25-.2-.32l-.58-.36c-.08-.05-.12-.13-.12-.22,0-.21.21-.33.39-.23l.26.15c.1.06.26,0,.26-.13v-.54c0-.18.11-.33.28-.35.21-.02.35.14.35.34v.56c0,.12.13.19.23.13l.28-.16s.1-.04.15-.04c.14,0,.28.11.28.27,0,.09-.05.17-.13.22l-.62.38c-.11.07-.18.19-.18.32v.9c0,.12.13.19.23.13l.83-.47c.11-.07.19-.19.19-.31l.02-.68c0-.09.05-.18.13-.22.04-.03.09-.04.13-.04.14,0,.27.12.27.27v.29c-.01.12.12.19.22.14l.49-.28c.17-.09.39-.04.48.12.03.05.04.11.04.17,0,.12-.06.23-.17.29l-.5.28c-.1.06-.11.21,0,.26ZM23.21,4.18v64.6h25.58V4.18h-25.58Zm18.13,38.59c0,.47-.39.85-.86.85h-13.71c-.48,0-.86-.38-.86-.85v-10.29c0-.47.39-.86.86-.86h13.71c.48,0,.86.38.86.86v10.29Zm4.78,15.72c0,.42-.35.76-.77.76h-1.54c-.42,0-.77-.34-.77-.76V14.85c0-.42.35-.76.77-.76h1.54c.43,0,.77.34.77.76v43.64Zm-1.98-.33h.88V15.18h-.88v42.99Zm-17.13-15.63h13.23v-9.82h-13.23v9.82Zm3.36-6.93c.06-.11.17-.17.28-.17.06,0,.11.02.17.05l.47.28c.1.06.22-.02.22-.14v-.29c-.02-.16.11-.27.26-.27.04,0,.09.01.13.04.08.04.13.13.13.22l.02.68c0,.13.07.25.19.32l.77.43c.1.06.25-.01.25-.13v-.88c0-.13-.09-.25-.2-.32l-.58-.36c-.08-.05-.12-.13-.12-.22,0-.21.21-.33.39-.23l.26.15c.1.06.26,0,.26-.13v-.54c0-.18.11-.33.28-.35.21-.02.35.14.35.34v.56c0,.12.13.19.23.13l.28-.16s.1-.04.15-.04c.14,0,.28.11.28.27,0,.09-.05.17-.13.22l-.62.38c-.11.07-.18.19-.18.32v.9c0,.12.13.19.23.13l.83-.47c.11-.07.19-.19.19-.31l.02-.68c0-.09.05-.18.13-.22.04-.03.09-.04.13-.04.14,0,.27.12.27.27v.29c-.01.12.12.19.22.14l.49-.28c.17-.09.39-.04.48.12.03.05.04.11.04.17,0,.12-.06.23-.17.29l-.5.28c-.1.06-.11.21,0,.26l.26.14c.18.1.19.36,0,.46-.04.02-.09.03-.13.03s-.09-.01-.13-.03l-.6-.32c-.12-.06-.26-.06-.37,0l-.79.45c-.1.06-.1.2,0,.26l.78.45c.11.07.26.07.37,0l.6-.32c.08-.04.18-.04.26,0,.09.05.13.14.13.23s-.05.18-.14.23l-.26.14c-.11.06-.11.2,0,.26l.5.28c.16.09.22.3.13.46-.06.11-.18.17-.3.17-.06,0-.12-.02-.17-.05l-.49-.28c-.1-.06-.24.02-.23.13v.3c.01.21-.21.34-.39.24-.08-.05-.14-.13-.15-.22l-.03-.73c0-.1-.06-.2-.15-.25l-.84-.48c-.1-.06-.23.01-.23.13v.89c0,.13.07.25.18.32l.62.38c.08.05.13.12.13.22,0,.16-.12.28-.27.28-.05,0-.09-.01-.14-.04l-.29-.18c-.1-.06-.23.01-.23.13v.58c0,.09-.02.18-.08.24-.06.06-.13.1-.23.1-.19,0-.33-.15-.33-.34v-.53c0-.12-.16-.19-.26-.13l-.22.13c-.17.1-.36.04-.41-.15-.03-.12.02-.23.11-.29l.57-.33c.11-.07.21-.19.21-.32v-.89c0-.12-.15-.19-.25-.13l-.93.52h0s-.04.89-.04.89c0,.09-.06.17-.14.22-.18.1-.41-.03-.4-.24v-.3c0-.12-.12-.19-.22-.14l-.46.28c-.16.09-.36.04-.45-.12-.03-.06-.05-.13-.05-.19,0-.11.05-.21.15-.27l.47-.28c.1-.06.1-.21,0-.26l-.27-.14c-.09-.05-.14-.14-.14-.23s.05-.18.13-.23c.08-.05.18-.05.26,0l.6.32c.12.06.26.06.37,0l.78-.45c.1-.06.1-.2,0-.26l-.79-.45c-.11-.07-.26-.07-.37,0l-.6.32s-.08.03-.13.03c-.05,0-.09-.01-.13-.03-.18-.1-.18-.36,0-.46l.26-.14c.11-.05.11-.2,0-.26l-.47-.28c-.16-.09-.19-.3-.1-.46Zm-3.36-2.89v9.82h13.23v-9.82h-13.23Zm9.26,3.9l.26.14c.18.1.19.36,0,.46-.04.02-.09.03-.13.03s-.09-.01-.13-.03l-.6-.32c-.12-.06-.26-.06-.37,0l-.79.45c-.1.06-.1.2,0,.26l.78.45c.11.07.26.07.37,0l.6-.32c.08-.04.18-.04.26,0,.09.05.13.14.13.23s-.05.18-.14.23l-.26.14c-.11.06-.11.2,0,.26l.5.28c.16.09.22.3.13.46-.06.11-.18.17-.3.17-.06,0-.12-.02-.17-.05l-.49-.28c-.1-.06-.24.02-.23.13v.3c.01.21-.21.34-.39.24-.08-.05-.14-.13-.15-.22l-.03-.73c0-.1-.06-.2-.15-.25l-.84-.48c-.1-.06-.23.01-.23.13v.89c0,.13.07.25.18.32l.62.38c.08.05.13.12.13.22,0,.16-.12.28-.27.28-.05,0-.09-.01-.14-.04l-.29-.18c-.1-.06-.23.01-.23.13v.58c0,.09-.02.18-.08.24-.06.06-.13.1-.23.1-.19,0-.33-.15-.33-.34v-.53c0-.12-.16-.19-.26-.13l-.22.13c-.17.1-.36.04-.41-.15-.03-.12.02-.23.11-.29l.57-.33c.11-.07.21-.19.21-.32v-.89c0-.12-.15-.19-.25-.13l-.93.52h0s-.04.89-.04.89c0,.09-.06.17-.14.22-.18.1-.41-.03-.4-.24v-.3c0-.12-.12-.19-.22-.14l-.46.28c-.16.09-.36.04-.45-.12-.03-.06-.05-.13-.05-.19,0-.11.05-.21.15-.27l.47-.28c.1-.06.1-.21,0-.26l-.27-.14c-.09-.05-.14-.14-.14-.23s.05-.18.13-.23c.08-.05.18-.05.26,0l.6.32c.12.06.26.06.37,0l.78-.45c.1-.06.1-.2,0-.26l-.79-.45c-.11-.07-.26-.07-.37,0l-.6.32s-.08.03-.13.03c-.05,0-.09-.01-.13-.03-.18-.1-.18-.36,0-.46l.26-.14c.11-.05.11-.2,0-.26l-.47-.28c-.16-.09-.19-.3-.1-.46.06-.11.17-.17.28-.17.06,0,.11.02.17.05l.47.28c.1.06.22-.02.22-.14v-.29c-.02-.16.11-.27.26-.27.04,0,.09.01.13.04.08.04.13.13.13.22l.02.68c0,.13.07.25.19.32l.77.43c.1.06.25-.01.25-.13v-.88c0-.13-.09-.25-.2-.32l-.58-.36c-.08-.05-.12-.13-.12-.22,0-.21.21-.33.39-.23l.26.15c.1.06.26,0,.26-.13v-.54c0-.18.11-.33.28-.35.21-.02.35.14.35.34v.56c0,.12.13.19.23.13l.28-.16s.1-.04.15-.04c.14,0,.28.11.28.27,0,.09-.05.17-.13.22l-.62.38c-.11.07-.18.19-.18.32v.9c0,.12.13.19.23.13l.83-.47c.11-.07.19-.19.19-.31l.02-.68c0-.09.05-.18.13-.22.04-.03.09-.04.13-.04.14,0,.27.12.27.27v.29c-.01.12.12.19.22.14l.49-.28c.17-.09.39-.04.48.12.03.05.04.11.04.17,0,.12-.06.23-.17.29l-.5.28c-.1.06-.11.21,0,.26Z"/>
  </g>
</svg>