<?xml version="1.0" encoding="UTF-8"?>
<svg id="Layer_1" data-name="Layer 1" xmlns="http://www.w3.org/2000/svg" viewBox="0 0 100 100">
  <defs>
    <style>
      .cls-1 {
        fill: #fff;
      }

      .cls-1, .cls-2 {
        stroke-width: 0px;
      }

      .cls-2 {
        fill: #007878;
      }
    </style>
  </defs>
  <g id="chainsaw">
    <path class="cls-2" d="m84.01,88.64l-7.99-7.52,1.36-2.29c.95-1.6.44-3.68-1.14-4.63l-3.86-2.35,4.64-7.8c.42-.7.54-1.52.34-2.31-.19-.79-.68-1.46-1.38-1.88-.69-.42-1.5-.54-2.29-.34-.78.2-1.44.69-1.86,1.39l-4.64,7.8-1.29-.78.67-1.13c.14-.23.17-.5.11-.76-.06-.26-.22-.48-.45-.62l-6.03-3.66c-.23-.14-.49-.18-.75-.11-.26.07-.47.23-.61.46l-.67,1.13-.8-.49c-.77-.46-1.67-.6-2.53-.38s-1.6.76-2.06,1.54l-.83,1.4-28.15-17.09c-1.03-.63-2.24-.81-3.41-.51-1.17.29-2.15,1.03-2.77,2.07-1.28,2.15-.59,4.95,1.54,6.25l28.15,17.09-.83,1.4c-.46.77-.6,1.68-.38,2.56.22.88.76,1.61,1.52,2.08l12.11,7.35,9.62,5.84,8.64,5.25c.46.28.98.42,1.53.42.38,0,.77-.07,1.14-.21.85-.31,1.6-.95,2.1-1.79l1.62-2.73c.94-1.59.79-3.53-.38-4.63Zm-4.7,4.68l-7.68-4.81,2.11-3.54,6.89,6.3-1.31,2.06Zm-35.91-33.78s-.04.06-.06.09l-1.93-1.17s.03-.07.05-.1c.32-.54,1.02-.72,1.56-.39s.71,1.03.39,1.57Zm1.75-.27c-.54-.33-1.23-.15-1.56.39-.02.03-.04.06-.05.1l1.93,1.17s.04-.06.06-.09c.32-.54.15-1.25-.39-1.57Zm2.14,1.3c-.54-.33-1.23-.15-1.56.39-.02.03-.04.06-.05.1l1.93,1.17s.04-.06.06-.09c.32-.54.15-1.25-.39-1.57Zm2.14,1.3c-.54-.33-1.23-.15-1.56.39-.02.03-.04.06-.05.1l1.93,1.17s.04-.06.06-.09c.32-.54.15-1.25-.39-1.57Zm2.14,1.3c-.54-.33-1.23-.15-1.56.39-.02.03-.04.06-.05.1l1.93,1.17s.04-.06.06-.09c.32-.54.15-1.25-.39-1.57Zm-19.25-11.69c-.54-.33-1.23-.15-1.56.39-.02.03-.04.06-.05.1l1.93,1.17s.04-.06.06-.09c.32-.54.15-1.25-.39-1.57Zm2.14,1.3c-.54-.33-1.23-.15-1.56.39-.02.03-.04.06-.05.1l1.93,1.17s.04-.06.06-.09c.32-.54.15-1.25-.39-1.57Zm2.14,1.3c-.54-.33-1.23-.15-1.56.39-.02.03-.04.06-.05.1l1.93,1.17s.04-.06.06-.09c.32-.54.15-1.25-.39-1.57Zm2.14,1.3c-.54-.33-1.23-.15-1.56.39-.02.03-.04.06-.05.1l1.93,1.17s.04-.06.06-.09c.32-.54.15-1.25-.39-1.57Zm2.14,1.3c-.54-.33-1.23-.15-1.56.39-.02.03-.04.06-.05.1l1.93,1.17s.04-.06.06-.09c.32-.54.15-1.25-.39-1.57Zm-17.11-10.39c-.54-.33-1.23-.15-1.56.39-.09.14-.13.3-.15.45.6.1,1.2.31,1.75.65l.28.17s.04-.06.06-.09c.32-.54.15-1.25-.39-1.57Zm2.14,1.3c-.54-.33-1.23-.15-1.56.39-.02.03-.04.06-.05.1l1.93,1.17s.04-.06.06-.09c.32-.54.15-1.25-.39-1.57Zm2.14,1.3c-.54-.33-1.23-.15-1.56.39-.02.03-.04.06-.05.1l1.93,1.17s.04-.06.06-.09c.32-.54.15-1.25-.39-1.57Zm2.14,1.3c-.54-.33-1.23-.15-1.56.39-.02.03-.04.06-.05.1l1.93,1.17s.04-.06.06-.09c.32-.54.15-1.25-.39-1.57Zm-12.38-1.62s-.07-.05-.11-.08c-.54-.33-1.23-.15-1.56.39s-.15,1.25.39,1.57c.04.02.08.04.12.06.11-.36.27-.71.47-1.04s.43-.64.69-.91Zm1.26-1.92c-.54-.33-1.23-.15-1.56.39s-.16,1.18.31,1.52c.5-.52,1.11-.91,1.77-1.16-.06-.3-.24-.58-.53-.75Zm2.3-.74c-.54-.33-1.23-.15-1.56.39-.2.33-.21.72-.07,1.05.69-.23,1.42-.31,2.15-.22.1-.46-.1-.96-.53-1.22Zm16.96,22.2l-1.93-1.17s-.04.06-.06.09c-.32.54-.15,1.25.39,1.57s1.23.15,1.56-.39c.02-.03.04-.06.05-.1Zm2.14,1.3l-1.93-1.17s-.04.06-.06.09c-.32.54-.15,1.25.39,1.57s1.23.15,1.56-.39c.02-.03.04-.06.05-.1Zm2.14,1.3l-1.93-1.17s-.04.06-.06.09c-.32.54-.15,1.25.39,1.57s1.23.15,1.56-.39c.02-.03.04-.06.05-.1Zm2.14,1.3l-1.93-1.17s-.04.06-.06.09c-.32.54-.15,1.25.39,1.57s1.23.15,1.56-.39c.02-.03.04-.06.05-.1Zm-17.11-10.39l-1.93-1.17s-.04.06-.06.09c-.32.54-.15,1.25.39,1.57s1.23.15,1.56-.39c.02-.03.04-.06.05-.1Zm2.14,1.3l-1.93-1.17s-.04.06-.06.09c-.32.54-.15,1.25.39,1.57s1.23.15,1.56-.39c.02-.03.04-.06.05-.1Zm2.14,1.3l-1.93-1.17s-.04.06-.06.09c-.32.54-.15,1.25.39,1.57s1.23.15,1.56-.39c.02-.03.04-.06.05-.1Zm2.14,1.3l-1.93-1.17s-.04.06-.06.09c-.32.54-.15,1.25.39,1.57s1.23.15,1.56-.39c.02-.03.04-.06.05-.1Zm2.14,1.3l-1.93-1.17s-.04.06-.06.09c-.32.54-.15,1.25.39,1.57s1.23.15,1.56-.39c.02-.03.04-.06.05-.1Zm-17.11-10.39l-.28-.17c-.56-.34-1.02-.77-1.39-1.26-.13.09-.24.21-.33.35-.32.54-.15,1.25.39,1.57s1.23.15,1.56-.39c.02-.03.04-.06.05-.1Zm2.14,1.3l-1.93-1.17s-.04.06-.06.09c-.32.54-.15,1.25.39,1.57s1.23.15,1.56-.39c.02-.03.04-.06.05-.1Zm2.14,1.3l-1.93-1.17s-.04.06-.06.09c-.32.54-.15,1.25.39,1.57s1.23.15,1.56-.39c.02-.03.04-.06.05-.1Zm2.14,1.3l-1.93-1.17s-.04.06-.06.09c-.32.54-.15,1.25.39,1.57s1.23.15,1.56-.39c.02-.03.04-.06.05-.1Zm-8.84-9.78c-.52-.26-1.17-.08-1.48.44-.32.54-.15,1.25.39,1.57.28.17.61.2.9.12-.09-.7-.03-1.43.19-2.12Zm-.08,2.68c-.03-.13-.06-.26-.08-.4-.36.03-.69.22-.89.55-.32.54-.15,1.25.39,1.57.43.26.95.2,1.31-.1-.34-.5-.59-1.05-.73-1.63Zm30.31,20.09l-1.93-1.17s-.04.06-.06.09c-.32.54-.15,1.25.39,1.57s1.23.15,1.56-.39c.02-.03.04-.06.05-.1Z"/>
    <path class="cls-1" d="m51.4,66.23l-3.54,5.94-28.15-17.09c-1.62-.98-2.15-3.12-1.17-4.76.47-.79,1.22-1.36,2.11-1.58.89-.22,1.81-.08,2.6.39l28.15,17.09Zm8.33-3.5l5.88,3.57-.73,1.23-5.88-3.57.73-1.23Zm22.81,27.5l-7.65-7.21-.59.99,7.33,6.7c.22.21.26.54.1.81l-1.73,2.73c-.12.2-.33.31-.55.31-.11,0-.22-.03-.32-.09l-8.05-5.04-.62,1.04,8.64,5.25c.3.18.65.1.83.03.39-.14.75-.46.99-.87l1.62-2.73c.41-.69.41-1.54,0-1.92Zm-23.88-18.52c-.41-.25-.85-.36-1.3-.36-.86,0-1.7.44-2.17,1.23-.72,1.21-.33,2.78.86,3.5,1.19.72,2.75.33,3.47-.87.24-.41.36-.86.36-1.31,0-.87-.44-1.71-1.22-2.19Zm16.88,6.01l-6.93,11.64-19.89-12.07c-.56-.34-.75-1.09-.41-1.66l6.31-10.61c.23-.38.62-.58,1.03-.58.21,0,.42.06.61.17l9.82,5.96-4.88,8.21c-.86,1.44-.39,3.32,1.04,4.19.49.3,1.02.44,1.55.44,1.03,0,2.03-.53,2.6-1.48l4.88-8.2,3.86,2.34c.27.17.47.43.54.74.08.31.03.64-.13.91Zm-15.1-1.95c1.02-1.72.47-3.96-1.23-4.99-1.7-1.03-3.92-.47-4.94,1.25-1.02,1.72-.47,3.96,1.23,4.99.58.35,1.22.52,1.85.52s1.22-.16,1.75-.46c.54-.3,1-.74,1.34-1.31Zm13.23-13.74c.25-.42.79-.55,1.2-.3.2.12.34.31.4.54.06.23.02.47-.1.67l-10.63,17.87c-.25.42-.79.55-1.2.3-.41-.25-.55-.79-.3-1.21l10.63-17.87h0Z"/>
  </g>
</svg>