<?xml version="1.0" encoding="UTF-8"?>
<svg id="Layer_1" data-name="Layer 1" xmlns="http://www.w3.org/2000/svg" viewBox="0 0 100 100">
  <defs>
    <style>
      .cls-1 {
        fill: #fff;
      }

      .cls-1, .cls-2 {
        stroke-width: 0px;
      }

      .cls-2 {
        fill: #007878;
      }
    </style>
  </defs>
  <g id="dryer">
    <path class="cls-2" d="m79,43.47v52.25c0,1.26-1,2.28-2.23,2.28H23.23c-1.23,0-2.23-1.02-2.23-2.28v-52.25c0-.86.47-1.61,1.16-2v-9.28c0-1.21.96-2.19,2.14-2.19h51.4c1.18,0,2.14.98,2.14,2.19v9.28c.69.39,1.16,1.14,1.16,2Z"/>
    <path class="cls-1" d="m58.18,36.61c0,.57-.45,1.03-1,1.03s-1-.46-1-1.03.45-1.03,1-1.03,1,.46,1,1.03Zm-5.61,0c0,1.45-1.15,2.62-2.57,2.62s-2.57-1.18-2.57-2.62,1.15-2.62,2.57-2.62,2.57,1.18,2.57,2.62Zm0,0c0,1.45-1.15,2.62-2.57,2.62s-2.57-1.18-2.57-2.62,1.15-2.62,2.57-2.62,2.57,1.18,2.57,2.62Zm23.12-4.42v9.08H24.3v-9.08h51.4Zm-30.76,4.42c0-1.2-.95-2.17-2.12-2.17s-2.12.97-2.12,2.17.95,2.17,2.12,2.17,2.12-.97,2.12-2.17Zm8.76,0c0-2.08-1.65-3.77-3.68-3.77s-3.68,1.69-3.68,3.77,1.65,3.77,3.68,3.77,3.68-1.69,3.68-3.77Zm5.61,0c0-1.2-.95-2.17-2.12-2.17s-2.12.97-2.12,2.17.95,2.17,2.12,2.17,2.12-.97,2.12-2.17Zm-6.72,0c0,1.45-1.15,2.62-2.57,2.62s-2.57-1.18-2.57-2.62,1.15-2.62,2.57-2.62,2.57,1.18,2.57,2.62Zm-8.76,0c0,.57-.45,1.03-1,1.03s-1-.46-1-1.03.45-1.03,1-1.03,1,.46,1,1.03Zm19.35,39c0,.05,0,.1.02.16h0c-2.39,5.03-7.43,8.51-13.26,8.51-5,0-9.61-2.56-12.34-6.85-2.8-4.4-3.14-9.86-.93-14.99,1.31-3.04,3.67-5.45,6.63-6.8,2.19-.99,4.45-1.49,6.65-1.49,2.84,0,5.58.81,8.01,2.43,2.41,1.6,4.26,3.84,5.4,6.43-.11.14-.18.31-.18.5v12.1Zm-18.4-4.98c1.27-2.09,1.45-4.67.48-6.92l-1.47-3.43-2.04.92,1.48,3.43c.67,1.56.55,3.35-.33,4.8-1.41,2.32-1.46,5.23-.15,7.61l1.06,1.91,1.94-1.13-1.06-1.91c-.91-1.65-.87-3.67.1-5.27Zm6.25,0c1.27-2.09,1.45-4.67.48-6.92l-1.47-3.43-2.04.92,1.48,3.43c.67,1.56.55,3.35-.33,4.8-1.41,2.32-1.46,5.23-.15,7.61l1.06,1.91,1.94-1.13-1.06-1.91c-.91-1.65-.87-3.67.1-5.27Zm6.25,0c1.27-2.09,1.45-4.67.48-6.92l-1.47-3.43-2.04.92,1.48,3.43c.67,1.56.55,3.35-.33,4.8-1.41,2.32-1.46,5.23-.15,7.61l1.06,1.91,1.94-1.13-1.06-1.91c-.91-1.65-.87-3.67.1-5.27Zm6.86,5.77h.98c-2.66,5.85-8.46,9.92-15.17,9.92-5.67,0-10.91-2.91-14.02-7.78-3.19-5-3.57-11.21-1.05-17.04,1.48-3.44,4.15-6.17,7.51-7.69,2.5-1.13,5.07-1.69,7.58-1.69,3.22,0,6.34.92,9.09,2.75,2.91,1.94,5.1,4.69,6.36,7.85h-.95c-1.22-2.85-3.24-5.33-5.89-7.09-4.63-3.08-10.36-3.46-15.72-1.03-3.23,1.46-5.78,4.08-7.21,7.38-2.36,5.48-1.99,11.34,1.02,16.07,2.94,4.61,7.9,7.37,13.28,7.37,6.21,0,11.6-3.68,14.19-9.01Zm12.65-32.93v52.25H23.23v-52.25h53.54Zm-6.03,22.1c0-1.57-1.25-2.85-2.78-2.85h-.15c-1.37-3.96-3.99-7.41-7.55-9.78-5.54-3.69-12.4-4.14-18.81-1.24-3.87,1.76-6.95,4.91-8.66,8.87-2.83,6.56-2.38,13.56,1.22,19.23,3.52,5.53,9.47,8.83,15.9,8.83,7.98,0,14.83-5.07,17.62-12.22h.41c1.53,0,2.78-1.28,2.78-2.85v-7.99Zm-6.47-1.72h3.69c.92,0,1.68.77,1.68,1.72v7.99c0,.95-.75,1.72-1.68,1.72h-3.69v-11.42Z"/>
  </g>
</svg>