<?xml version="1.0" encoding="UTF-8"?>
<svg id="Layer_1" data-name="Layer 1" xmlns="http://www.w3.org/2000/svg" viewBox="0 0 100 100">
  <defs>
    <style>
      .cls-1 {
        fill: #fff;
      }

      .cls-1, .cls-2 {
        stroke-width: 0px;
      }

      .cls-2 {
        fill: #007878;
      }
    </style>
  </defs>
  <g id="string_trimmer" data-name="string trimmer">
    <path class="cls-2" d="m90.13,15.37l-9.61,8.67c-.32.29-.72.43-1.11.43-.3,0-.6-.08-.87-.25-.06.02-6.19.75-6.19.75l-13.36,12.06c-.24.22-.55.34-.87.34-.02,0-.05,0-.07,0-.18,0-.34-.05-.5-.13l-2.39,2.15,1.25,1.39c.49.54.74,1.24.7,1.97-.04.73-.35,1.4-.89,1.88-.52.47-1.17.7-1.82.7-.74,0-1.49-.3-2.02-.9l-1.26-1.39-24.74,22.28c-1.06.96-1.8,2.26-2.06,3.67l-2.42,12.44s-.01.06-.02.08c6.45.27,12.48,2.05,12.48,5.21,0,.22-.03.46-.11.72v4.32c-.01,1.15-.83,2.77-4.67,3.97-1.77.55-3.97.95-6.36,1.14-.04,0-.08,0-.12,0-.38,0-.75-.14-1.03-.4-.31-.29-.49-.69-.49-1.12v-1.88c-.41.15-.87.27-1.35.36.75,1.79.36,3.63.35,3.72-.05.25-.28.43-.53.43-.04,0-.08,0-.12-.01-.29-.06-.48-.35-.42-.64,0-.02.37-1.8-.41-3.34-.44.04-.9.06-1.35.06-2.83,0-5.68-.78-5.68-2.51v-1.28c-.53.32-1.07.77-1.55,1.39-1.25,1.63-.78,3.91-.78,3.93.06.29-.12.58-.42.64-.04,0-.08.01-.12.01-.25,0-.47-.17-.53-.43-.02-.11-.58-2.78.97-4.82.74-.97,1.62-1.59,2.41-1.97v-1.03c-.21-.27-.33-.58-.33-.93,0-1.54,2.27-2.32,4.77-2.48v-1.7s0-.06,0-.09c.05-.63.63-1.08,1.43-1.34-.03-.13-.04-.26-.04-.4,0-.13.01-.25.03-.38l2.32-11.96c.49-2.57,1.83-4.96,3.78-6.71l24.37-21.95-7.03-7.78c-1.01-1.12-.92-2.84.2-3.85.54-.49,1.24-.73,1.97-.7.73.04,1.4.36,1.88.89l7.03,7.79,2.33-2.1c-.15-.23-.21-.49-.2-.77.02-.35.17-.67.43-.9l13.46-12.16s1.39-5.78,1.41-5.84h0c-.31-.65-.17-1.45.38-1.95l2.74-2.47-.8-.88c-.34-.38-.31-.97.07-1.31l4.29-3.88c.18-.17.42-.25.67-.24.25.01.48.12.64.3l.8.88,1.2-1.08c1.62-1.46,4.13-1.34,5.6.28l4.94,5.47c1.46,1.62,1.34,4.13-.28,5.6Z"/>
    <path class="cls-1" d="m21.58,90.45v1.12c-.32.22-1.14.54-2.41.68-1.77-1.91-4.01-2.1-4.11-2.11-.3-.03-.56.2-.58.5-.03.3.2.56.5.58.02,0,1.35.13,2.66,1.1-2.25-.02-3.58-.58-3.83-.85v-2.4c1.04.35,2.36.51,3.67.51,1.13,0,2.27-.12,3.23-.38l.88,1.25Zm-5.06-4.11c-1.57.11-2.58.49-2.93.74.43.3,1.76.77,3.89.77.35,0,.69-.01,1-.04-1.05-.22-1.88-.72-1.95-1.47Zm14.27,4.01c-1.82.72-4.3,1.24-7.03,1.48v2.83c1.95-.19,3.73-.53,5.17-.98,2.58-.81,3.15-1.65,3.15-1.91v-2.02c-.37.21-.8.41-1.29.61Zm-1.68-5.53c-1.67-.53-3.73-.89-5.99-1.06v2.47c0,.54-.38.96-.96,1.24l1.54,2.18c5.66-.52,8.5-2.13,8.5-2.92,0-.26-.55-1.11-3.08-1.91Zm40.78-62.67l1.06,1.18-12.75,11.52-1.06-1.18,12.75-11.52Zm12.26-13.42c-.87,0-1.73.31-2.43.93-1.48,1.34-1.6,3.63-.26,5.12,1.34,1.48,3.63,1.6,5.12.26,1.48-1.34,1.6-3.63.26-5.12-.71-.79-1.7-1.19-2.69-1.19Zm6.54,5.02l-9.23,8.33-7.33-8.12,9.23-8.33c.73-.66,1.87-.6,2.53.13l4.94,5.47c.66.73.6,1.87-.13,2.53Zm-1.83-1.4c0-1.12-.4-2.25-1.21-3.15-.84-.93-2-1.48-3.25-1.55-1.26-.07-2.46.36-3.4,1.21-.93.84-1.48,2-1.55,3.25-.06,1.26.36,2.46,1.21,3.4.84.93,2,1.48,3.25,1.55.08,0,.17,0,.25,0,1.17,0,2.28-.43,3.15-1.21,1.03-.93,1.55-2.21,1.55-3.5Zm-9.66-7.29l.74.82-4.06,3.67-.74-.82,4.06-3.67Zm-5.62,11.86l4.88,5.4-3.17.43-2.45-2.72.75-3.11ZM22.02,84.19c-.61.27-1.41.41-2.21.41s-1.6-.14-2.21-.41v2.04c.05.17.8.63,2.21.63s2.16-.46,2.21-.63v-2.03Zm0-1.3c-.06.18-.81.63-2.21.63s-2.17-.46-2.21-.62c.05-.17.8-.63,2.21-.63s2.15.45,2.21.63Zm2.75-20.08c-1.77,1.6-2.99,3.77-3.44,6.11l-.18.97-2.14,10.99c-.01.05-.02.12-.02.18,0,.44.31.83.75.91.24.05.49,0,.7-.14.2-.14.34-.35.39-.59l2.42-12.44c.31-1.64,1.17-3.15,2.41-4.27l24.74-22.28-1.25-1.38-24.38,21.95Zm30.86-27.79l-2.44,2.2,1.25,1.38,2.44-2.2-1.25-1.38Zm-12.63-4.2c-.2-.23-.19-.58.04-.78.11-.1.25-.15.4-.14.15,0,.28.07.38.18l10.99,12.17c.1.11.15.25.14.4,0,.15-.07.28-.18.38-.23.21-.58.19-.78-.04l-10.99-12.17h0Z"/>
  </g>
</svg>