<?xml version="1.0" encoding="UTF-8"?>
<svg id="Layer_1" data-name="Layer 1" xmlns="http://www.w3.org/2000/svg" viewBox="0 0 100 100">
  <defs>
    <style>
      .cls-1 {
        fill: #fff;
      }

      .cls-1, .cls-2 {
        stroke-width: 0px;
      }

      .cls-2 {
        fill: #007878;
      }
    </style>
  </defs>
  <g id="washer">
    <path class="cls-2" d="m79,43.47v52.25c0,1.26-1,2.28-2.23,2.28H23.23c-1.23,0-2.23-1.02-2.23-2.28v-52.25c0-.86.47-1.62,1.16-2v-9.28c0-1.21.96-2.19,2.14-2.19h51.4c1.18,0,2.14.98,2.14,2.19v9.28c.69.39,1.16,1.14,1.16,2Z"/>
    <path class="cls-1" d="m30.65,36.61c0,.57-.45,1.03-1,1.03s-1-.46-1-1.03.45-1.03,1-1.03,1,.46,1,1.03Zm4.99,0c0,.57-.45,1.03-1,1.03s-1-.46-1-1.03.45-1.03,1-1.03,1,.46,1,1.03Zm0,0c0,.57-.45,1.03-1,1.03s-1-.46-1-1.03.45-1.03,1-1.03,1,.46,1,1.03Zm0,0c0,.57-.45,1.03-1,1.03s-1-.46-1-1.03.45-1.03,1-1.03,1,.46,1,1.03Zm16.92,0c0,1.45-1.15,2.62-2.57,2.62s-2.57-1.18-2.57-2.62,1.15-2.62,2.57-2.62,2.57,1.18,2.57,2.62Zm13.78,0c0,.57-.45,1.03-1,1.03s-1-.46-1-1.03.45-1.03,1-1.03,1,.46,1,1.03Zm0,0c0,.57-.45,1.03-1,1.03s-1-.46-1-1.03.45-1.03,1-1.03,1,.46,1,1.03Zm-13.78,0c0,1.45-1.15,2.62-2.57,2.62s-2.57-1.18-2.57-2.62,1.15-2.62,2.57-2.62,2.57,1.18,2.57,2.62Zm-16.92,0c0,.57-.45,1.03-1,1.03s-1-.46-1-1.03.45-1.03,1-1.03,1,.46,1,1.03Zm40.06-4.42v9.08H24.3v-9.08h51.4Zm-43.93,4.42c0-1.2-.95-2.17-2.12-2.17s-2.12.97-2.12,2.17.95,2.17,2.12,2.17,2.12-.97,2.12-2.17Zm4.99,0c0-1.2-.95-2.17-2.12-2.17s-2.12.97-2.12,2.17.95,2.17,2.12,2.17,2.12-.97,2.12-2.17Zm16.92,0c0-2.08-1.65-3.77-3.68-3.77s-3.68,1.69-3.68,3.77,1.65,3.77,3.68,3.77,3.68-1.69,3.68-3.77Zm13.78,0c0-1.2-.95-2.17-2.12-2.17s-2.12.97-2.12,2.17.95,2.17,2.12,2.17,2.12-.97,2.12-2.17Zm4.99,0c0-1.2-.95-2.17-2.12-2.17s-2.12.97-2.12,2.17.95,2.17,2.12,2.17,2.12-.97,2.12-2.17Zm-1.12,0c0,.57-.45,1.03-1,1.03s-1-.46-1-1.03.45-1.03,1-1.03,1,.46,1,1.03Zm-4.99,0c0,.57-.45,1.03-1,1.03s-1-.46-1-1.03.45-1.03,1-1.03,1,.46,1,1.03Zm-13.78,0c0,1.45-1.15,2.62-2.57,2.62s-2.57-1.18-2.57-2.62,1.15-2.62,2.57-2.62,2.57,1.18,2.57,2.62Zm-16.92,0c0,.57-.45,1.03-1,1.03s-1-.46-1-1.03.45-1.03,1-1.03,1,.46,1,1.03Zm0,0c0,.57-.45,1.03-1,1.03s-1-.46-1-1.03.45-1.03,1-1.03,1,.46,1,1.03Zm16.92,0c0,1.45-1.15,2.62-2.57,2.62s-2.57-1.18-2.57-2.62,1.15-2.62,2.57-2.62,2.57,1.18,2.57,2.62Zm0,0c0,1.45-1.15,2.62-2.57,2.62s-2.57-1.18-2.57-2.62,1.15-2.62,2.57-2.62,2.57,1.18,2.57,2.62Zm-16.92,0c0,.57-.45,1.03-1,1.03s-1-.46-1-1.03.45-1.03,1-1.03,1,.46,1,1.03Zm22.38,19.97c-2.42-1.61-5.17-2.43-8.01-2.43-2.21,0-4.46.49-6.65,1.49-2.97,1.35-5.32,3.76-6.63,6.8-.73,1.68-1.18,3.41-1.36,5.11.93.97,2.24,1.59,3.67,1.59,1.2,0,2.33-.43,3.21-1.14.15-.11.35-.11.5,0,.88.72,2,1.14,3.2,1.14,1.35,0,2.58-.53,3.5-1.4.16-.15.38-.15.54,0,.92.86,2.13,1.4,3.49,1.4s2.58-.53,3.5-1.4c.16-.15.39-.15.55,0,.92.86,2.13,1.4,3.48,1.4.87,0,1.68-.22,2.39-.6v-4.8c0-.17.05-.33.15-.46-1.13-2.7-3.02-5.04-5.52-6.7Zm6.06,20.04c-2.63,5.22-7.96,8.79-14.08,8.79-5.37,0-10.34-2.75-13.28-7.37-3.01-4.73-3.38-10.59-1.02-16.07,1.42-3.3,3.98-5.92,7.21-7.38,5.36-2.43,11.09-2.05,15.72,1.03,2.72,1.81,4.78,4.37,5.98,7.32h.88c-1.26-3.26-3.48-6.1-6.46-8.08-2.75-1.83-5.87-2.75-9.09-2.75-2.51,0-5.08.56-7.58,1.69-3.36,1.52-6.03,4.25-7.51,7.69-2.52,5.83-2.13,12.04,1.05,17.04,3.11,4.87,8.35,7.78,14.02,7.78,6.63,0,12.36-3.96,15.07-9.69h-.83s-.06,0-.08,0ZM23.23,43.47v52.25h53.54v-52.25H23.23Zm47.73,30.31c0,1.57-1.25,2.85-2.78,2.85h-.73c-2.85,7.03-9.63,11.99-17.53,11.99-6.44,0-12.38-3.3-15.9-8.83-3.61-5.66-4.05-12.67-1.22-19.23,1.71-3.96,4.78-7.11,8.66-8.87,6.41-2.9,13.27-2.45,18.81,1.24,3.63,2.42,6.28,5.95,7.62,10.01h.29c1.53,0,2.78,1.28,2.78,2.85v7.99Zm-6.47,1.72h3.69c.92,0,1.68-.77,1.68-1.72v-7.99c0-.95-.75-1.72-1.68-1.72h-3.69v11.42Z"/>
  </g>
</svg>