<?xml version="1.0" encoding="UTF-8"?>
<svg id="Layer_1" data-name="Layer 1" xmlns="http://www.w3.org/2000/svg" viewBox="0 0 100 100">
  <defs>
    <style>
      .cls-1 {
        fill: #fff;
      }

      .cls-1, .cls-2 {
        stroke-width: 0px;
      }

      .cls-2 {
        fill: #007878;
      }
    </style>
  </defs>
  <g id="generator">
    <path class="cls-2" d="m73.24,76.19v7.19c0,2.91-2.37,5.28-5.29,5.28h-22.34c-.85,0-1.58-.5-1.92-1.22h-9.05c-.65,0-1.21-.36-1.51-.89l-5.22-.74c-.72-.1-1.27-.73-1.27-1.45v-8.94c0-.73.55-1.35,1.27-1.46l5.22-.74c.3-.53.86-.89,1.51-.89h8.96c.29-.83,1.08-1.43,2.01-1.43h22.34c2.91,0,5.29,2.37,5.29,5.28Zm6.76-29.62v39.75c0,5.32-4.32,9.64-9.64,9.64h-.64v2.04h-7.93v-2.04h-23.57v2.04h-7.93v-2.04h-.64c-5.32,0-9.64-4.33-9.64-9.64v-39.75h5.79v3h.78c.36-1.06,1.36-1.82,2.54-1.82h11.96v-1.18c0-.65.53-1.18,1.18-1.18h3.53v-.54c0-.53.43-.96.96-.96h6.64c.53,0,.96.43.96.96v.54h3.54c.65,0,1.18.53,1.18,1.18v1.18h11.83c1.18,0,2.18.76,2.54,1.82h.78v-3h5.79Zm-5.79,8.57h-.64v13.07c0,.89-.72,1.61-1.61,1.61H28.04c-.88,0-1.61-.72-1.61-1.61v-13.07h-.64v31.39c0,1.77,1.44,3.21,3.21,3.21h42c1.77,0,3.21-1.44,3.21-3.21v-31.39Z"/>
    <path class="cls-1" d="m72.25,49.57H27.75c.28-.45.79-.75,1.36-.75h41.79c.57,0,1.07.3,1.36.75Zm-39.94,14.26h1.74v-4.09h-1.74v4.09Zm7.95-4.09v4.09h-1.74v-4.09h1.74Zm0,0v4.09h-1.74v-4.09h1.74Zm7.59-1.7v7.29h-17.36v-7.29h17.36Zm-12.98,1.62c0-.41-.34-.75-.75-.75h-1.9c-.41,0-.75.34-.75.75v4.26c0,.42.34.75.75.75h1.9c.41,0,.75-.34.75-.75v-4.26Zm6.21,0c0-.41-.34-.75-.75-.75h-1.9c-.41,0-.75.34-.75.75v4.26c0,.42.34.75.75.75h1.9c.41,0,.75-.34.75-.75v-4.26Zm5.79,0c0-.41-.34-.75-.75-.75h-1.9c-.41,0-.75.34-.75.75v4.26c0,.42.34.75.75.75h1.9c.41,0,.75-.34.75-.75v-4.26Zm-2.57.08h1.74v4.09h-1.74v-4.09Zm-5.79,0h1.74v4.09h-1.74v-4.09Zm33.98-4.6v13.07c0,.3-.24.54-.54.54H28.04c-.29,0-.54-.24-.54-.54v-13.07h45Zm-23.57,2.79c0-.53-.43-.96-.96-.96h-17.57c-.53,0-.96.43-.96.96v7.5c0,.53.43.96.96.96h17.57c.53,0,.96-.43.96-.96v-7.5Zm7.47,3.86c0-.77-.33-1.46-.84-1.94v-1.5c0-.52-.42-.94-.94-.94h-1.74c-.52,0-.94.42-.94.94v1.5c-.52.48-.85,1.18-.85,1.94s.33,1.46.85,1.94v1.5c0,.52.42.94.94.94h1.74c.52,0,.94-.42.94-.94v-1.5c.52-.48.84-1.17.84-1.94Zm7.07,0c0-.77-.33-1.46-.84-1.94v-1.5c0-.52-.42-.94-.94-.94h-1.74c-.52,0-.94.42-.94.94v1.5c-.52.48-.85,1.18-.85,1.94s.33,1.46.85,1.94v1.5c0,.52.42.94.94.94h1.74c.52,0,.94-.42.94-.94v-1.5c.52-.48.84-1.17.84-1.94Zm7.07,0c0-.77-.33-1.46-.84-1.94v-1.5c0-.52-.42-.94-.94-.94h-1.74c-.52,0-.94.42-.94.94v1.5c-.52.48-.85,1.18-.85,1.94s.33,1.46.85,1.94v1.5c0,.52.42.94.94.94h1.74c.52,0,.94-.42.94-.94v-1.5c.52-.48.84-1.17.84-1.94Zm-23.7-16.82h6.43v.43h-6.43v-.43Zm-4.71,1.61c0-.06.05-.11.11-.11h15.64c.06,0,.11.05.11.11v1.18h-15.86v-1.18Zm34.22,2.14v37.82c0,2.96-2.4,5.36-5.36,5.36H29c-2.95,0-5.36-2.4-5.36-5.36v-37.82h-1.5v37.61c0,4.14,3.37,7.5,7.5,7.5h.64v-.1c0-.6.49-1.08,1.08-1.08h5.77c.6,0,1.08.49,1.08,1.08v.1h23.57v-.1c0-.6.49-1.08,1.08-1.08h5.77c.6,0,1.08.49,1.08,1.08v.1h.64c4.14,0,7.5-3.36,7.5-7.5v-37.61h-1.5Zm-50.68,2.79h48.64v1.71H25.68v-1.71Zm27.31,6.95v.8c.24-.07.5-.11.76-.11s.52.04.77.11v-.8h-1.53Zm0,5.88v.8h1.53v-.8c-.24.08-.5.11-.77.11s-.52-.04-.76-.11Zm2.4-2.54c0,.9-.73,1.63-1.63,1.63s-1.63-.73-1.63-1.63.73-1.63,1.63-1.63,1.63.73,1.63,1.63Zm4.68-3.34v.8c.24-.07.5-.11.76-.11s.52.04.77.11v-.8h-1.53Zm0,5.88v.8h1.53v-.8c-.24.08-.5.11-.77.11s-.52-.04-.76-.11Zm2.4-2.54c0,.9-.73,1.63-1.63,1.63s-1.63-.73-1.63-1.63.73-1.63,1.63-1.63,1.63.73,1.63,1.63Zm4.68-3.34v.8c.24-.07.5-.11.76-.11s.52.04.77.11v-.8h-1.53Zm0,5.88v.8h1.53v-.8c-.24.08-.5.11-.77.11s-.52-.04-.76-.11Zm2.4-2.54c0,.9-.73,1.63-1.63,1.63s-1.63-.73-1.63-1.63.73-1.63,1.63-1.63,1.63.73,1.63,1.63Zm-1.58,11.24c1.75,0,3.17,1.42,3.17,3.17v7.19c0,1.75-1.42,3.17-3.17,3.17h-22.36s.01-13.53.01-13.53h22.34Zm-39.17,2.99v7.77l4.12.58v-8.94l-4.12.58Zm14.63-1.2v10.18h-8.03v-10.18h8.03Zm-.8,8.73c0-.3-.24-.54-.54-.54h-5.36c-.3,0-.54.24-.54.54s.24.54.54.54h5.36c.3,0,.54-.24.54-.54Zm0-2.36c0-.3-.24-.54-.54-.54h-5.36c-.3,0-.54.24-.54.54s.24.54.54.54h5.36c.3,0,.54-.24.54-.54Zm0-2.36c0-.3-.24-.54-.54-.54h-5.36c-.3,0-.54.24-.54.54s.24.54.54.54h5.36c.3,0,.54-.24.54-.54Zm0-2.36c0-.3-.24-.54-.54-.54h-5.36c-.3,0-.54.24-.54.54s.24.54.54.54h5.36c.3,0,.54-.24.54-.54Zm-10.82,17.68h4.93v2.35h-4.93v-2.35Zm31.5,0h4.93v2.35h-4.93v-2.35Z"/>
  </g>
</svg>