<?xml version="1.0" encoding="UTF-8"?>
<svg id="Layer_1" data-name="Layer 1" xmlns="http://www.w3.org/2000/svg" viewBox="0 0 100 100">
  <defs>
    <style>
      .cls-1 {
        fill: #fff;
      }

      .cls-1, .cls-2 {
        stroke-width: 0px;
      }

      .cls-2 {
        fill: #007878;
      }
    </style>
  </defs>
  <g id="hedge_trimmer" data-name="hedge trimmer">
    <path class="cls-2" d="m84.07,89.28l-7.52-7.01,1.28-2.13c.89-1.49.41-3.43-1.07-4.32l-3.64-2.19,4.37-7.27c.39-.65.51-1.42.32-2.15-.18-.74-.64-1.36-1.3-1.75-.65-.39-1.42-.51-2.15-.32-.74.18-1.36.64-1.75,1.29l-4.37,7.27-1.21-.73.63-1.05c.13-.21.17-.46.11-.71-.06-.24-.21-.45-.42-.57l-5.67-3.41c-.21-.13-.46-.17-.71-.11-.24.06-.45.21-.57.43l-.63,1.05-.76-.46c-1.49-.89-3.43-.41-4.32,1.08l-3.72,6.2-.69-.42.68-1.43c.34-.72.2-1.49-.33-1.82-.54-.33-1.28-.13-1.78.49l-1.01,1.25-.86-.53.68-1.43c.28-.59.24-1.22-.08-1.61v-.06s-.25-.16-.25-.16c-.54-.33-1.28-.13-1.78.49l-1,1.25-.86-.53.68-1.42c.34-.72.2-1.49-.33-1.82-.54-.33-1.28-.13-1.79.49l-1,1.25-.86-.53.68-1.42c.35-.72.2-1.49-.33-1.82-.54-.34-1.28-.13-1.78.49l-1,1.24-.86-.53.68-1.42c.34-.72.2-1.49-.33-1.82-.53-.33-1.28-.13-1.78.49l-1,1.24-.86-.53.68-1.42c.34-.72.2-1.49-.33-1.82-.54-.34-1.28-.13-1.78.49l-1,1.24-.86-.53.68-1.42c.34-.72.2-1.49-.33-1.82-.53-.33-1.28-.13-1.78.49l-1,1.24-.86-.53.68-1.41c.34-.72.2-1.49-.33-1.82-.53-.33-1.28-.13-1.78.49l-1,1.24-.86-.54.67-1.41c.34-.72.2-1.49-.33-1.82-.53-.34-1.28-.13-1.78.49l-.99,1.24-.9-.56.69-1.44c.34-.72.2-1.49-.33-1.82-.53-.33-1.28-.13-1.78.49l-1.02,1.27c-.98-.5-2.19-.17-2.78.78-.2.33-.31.7-.32,1.09-.01.69.31,1.34.85,1.74l-.65,1.35c-.34.72-.2,1.49.33,1.82.16.1.35.15.55.16h.02c.43,0,.89-.24,1.21-.65l.95-1.18.92.57-.65,1.37c-.34.72-.2,1.48.33,1.82.16.1.35.15.55.16.44,0,.9-.24,1.24-.65l.97-1.2.87.54-.66,1.37c-.34.72-.2,1.48.33,1.82.16.1.35.16.55.16,0,0,.01,0,.02,0,.43,0,.89-.24,1.22-.65l.96-1.2.87.54-.65,1.37c-.34.72-.2,1.49.33,1.82.16.1.35.15.55.16,0,0,.01,0,.02,0,.43,0,.89-.24,1.21-.65l.97-1.2.87.54-.65,1.37c-.34.72-.2,1.48.33,1.82.16.1.35.16.55.16,0,0,.01,0,.02,0,.43,0,.89-.24,1.22-.65l.96-1.2.87.54-.65,1.37c-.34.72-.2,1.49.33,1.82.16.1.35.16.55.16h.02c.43,0,.89-.24,1.21-.65l.96-1.2.87.54-.65,1.37c-.34.72-.2,1.48.33,1.82.16.1.35.16.55.16.44,0,.9-.24,1.24-.65l.96-1.19.87.54-.65,1.36c-.34.72-.2,1.49.33,1.82.16.1.35.15.55.16h.02c.43,0,.89-.24,1.22-.65l.96-1.19.88.54-.65,1.36c-.34.72-.2,1.49.33,1.82.16.1.35.15.55.16.44,0,.9-.24,1.24-.65l.96-1.19.88.54-.65,1.36c-.34.72-.2,1.49.33,1.82.16.1.35.15.55.16h.02c.43,0,.89-.24,1.21-.65l.96-1.19.76.47-.02.03c-.43.72-.56,1.57-.36,2.38.2.82.71,1.5,1.43,1.94l28.59,17.19c.44.26.93.39,1.42.39,1.16,0,2.36-.68,3.07-1.86l1.53-2.54c.89-1.48.74-3.29-.36-4.32Zm-4.42,4.36l-7.24-4.49,1.98-3.3,6.48,5.87-1.23,1.92Z"/>
    <path class="cls-1" d="m75.85,64.69c-.05-.21-.19-.39-.37-.5-.39-.24-.89-.11-1.13.28l-10.01,16.65c-.11.19-.15.41-.09.62.05.21.19.39.37.51.39.23.89.11,1.13-.28l10.01-16.65c.11-.19.15-.41.09-.62Zm-15.64,8.8c-.38-.23-.8-.34-1.22-.34-.81,0-1.6.41-2.04,1.15-.67,1.12-.31,2.59.81,3.26,1.12.67,2.59.31,3.26-.81.23-.38.34-.8.34-1.22,0-.81-.41-1.6-1.15-2.04Zm0,0c-.38-.23-.8-.34-1.22-.34-.81,0-1.6.41-2.04,1.15-.67,1.12-.31,2.59.81,3.26,1.12.67,2.59.31,3.26-.81.23-.38.34-.8.34-1.22,0-.81-.41-1.6-1.15-2.04Zm0,0c-.38-.23-.8-.34-1.22-.34-.81,0-1.6.41-2.04,1.15-.67,1.12-.31,2.59.81,3.26,1.12.67,2.59.31,3.26-.81.23-.38.34-.8.34-1.22,0-.81-.41-1.6-1.15-2.04Zm16.02,4.75c-.07-.29-.25-.54-.51-.69l-3.64-2.19-4.6,7.65c-.53.89-1.48,1.38-2.45,1.38-.5,0-1-.13-1.46-.41-.65-.39-1.11-1.01-1.3-1.75-.18-.74-.07-1.5.32-2.15l4.6-7.65-9.24-5.56c-.18-.11-.37-.16-.58-.16-.09,0-.18,0-.27.03-.29.07-.54.25-.69.51l-4.23,7.04-1.22,2.02-.5.82c-.15.26-.2.56-.13.85.07.29.25.54.51.69l18.72,11.25,6.52-10.85c.15-.26.2-.56.13-.85Zm-15.6.25c-.5.28-1.07.42-1.65.42s-1.2-.15-1.74-.48c-1.6-.96-2.12-3.05-1.16-4.65.96-1.6,3.05-2.12,4.65-1.16,1.6.96,2.12,3.05,1.16,4.65-.32.53-.76.94-1.26,1.22Zm-.42-5c-.38-.23-.8-.34-1.22-.34-.81,0-1.6.41-2.04,1.15-.67,1.12-.31,2.59.81,3.26,1.12.67,2.59.31,3.26-.81.23-.38.34-.8.34-1.22,0-.81-.41-1.6-1.15-2.04Zm0,0c-.38-.23-.8-.34-1.22-.34-.81,0-1.6.41-2.04,1.15-.67,1.12-.31,2.59.81,3.26,1.12.67,2.59.31,3.26-.81.23-.38.34-.8.34-1.22,0-.81-.41-1.6-1.15-2.04Zm0,0c-.38-.23-.8-.34-1.22-.34-.81,0-1.6.41-2.04,1.15-.67,1.12-.31,2.59.81,3.26,1.12.67,2.59.31,3.26-.81.23-.38.34-.8.34-1.22,0-.81-.41-1.6-1.15-2.04Zm0,0c-.38-.23-.8-.34-1.22-.34-.81,0-1.6.41-2.04,1.15-.67,1.12-.31,2.59.81,3.26,1.12.67,2.59.31,3.26-.81.23-.38.34-.8.34-1.22,0-.81-.41-1.6-1.15-2.04Zm22.48,17.27l-7.2-6.72-.56.93,6.9,6.25c.2.19.24.5.09.75l-1.63,2.55c-.11.18-.31.29-.52.29-.1,0-.21-.02-.3-.08l-7.58-4.7-.58.97,8.14,4.89c.5.3,1.28-.06,1.71-.78l1.53-2.54c.39-.64.39-1.43,0-1.79Zm-21.47-25.63l-.69,1.15,5.54,3.33.69-1.15-5.54-3.33Zm-12.18,7.22l1.05-2.2c.15-.32.1-.56.02-.6-.07-.04-.31.01-.53.28l-1.54,1.91-2.31-1.43,1.05-2.2c.15-.31.09-.55.02-.6h-.01c-.09-.04-.31.02-.52.28l-1.53,1.91-2.31-1.43,1.05-2.2c.15-.31.1-.55.02-.6-.07-.05-.31,0-.53.28l-1.53,1.91-2.31-1.43,1.05-2.19c.15-.31.1-.55.03-.6-.07-.05-.32.01-.53.28l-1.53,1.9-2.31-1.43,1.05-2.19c.15-.31.1-.55.02-.6-.07-.05-.31,0-.53.28l-1.53,1.9-2.31-1.43,1.05-2.19c.15-.31.09-.55.02-.6-.07-.05-.32.01-.53.28l-1.53,1.9-2.31-1.43,1.05-2.19c.15-.31.09-.55.02-.6-.07-.05-.31,0-.53.28l-1.52,1.9-2.31-1.43,1.05-2.19c.15-.31.09-.55.02-.6-.07-.05-.31,0-.53.28l-1.52,1.9-2.31-1.43,1.04-2.19c.15-.31.1-.55.02-.6-.07-.04-.32.01-.53.28l-1.52,1.9-2.35-1.46,1.06-2.21c.15-.31.09-.55.02-.6-.07-.05-.31,0-.53.28l-1.54,1.92-.57-.36c-.55-.34-1.28-.17-1.62.38-.11.18-.17.39-.18.6,0,.42.2.8.56,1.02l.56.35-1.01,2.12c-.15.31-.09.56-.02.6.01,0,.03.01.06.01h0c.12,0,.31-.09.47-.29l1.48-1.84,2.36,1.46-1.02,2.15c-.15.31-.09.56-.02.6,0,0,.02.01.06.01.12,0,.31-.09.47-.3l1.5-1.86,2.32,1.44-1.02,2.15c-.15.31-.09.56-.02.6.01,0,.03.01.06.01,0,0,0,0,0,0,.12,0,.31-.09.47-.3l1.49-1.86,2.32,1.44-1.02,2.14c-.15.31-.1.56-.02.6,0,0,.02.01.06.01.11,0,.31-.09.47-.29l1.5-1.86,2.32,1.44-1.02,2.14c-.15.31-.09.56-.02.6.01,0,.03.01.06.01.12,0,.31-.09.48-.29l1.49-1.85,2.32,1.44-1.02,2.14c-.15.31-.09.56-.02.6.01,0,.03.01.06.01.11,0,.31-.09.47-.29l1.49-1.85,2.32,1.44-1.02,2.14c-.15.31-.09.56-.02.6.01,0,.03.01.06.01.11,0,.31-.09.48-.29l1.49-1.85,2.32,1.44-1.02,2.14c-.15.31-.09.56-.02.6.01,0,.03.01.06.01.12,0,.31-.09.47-.29l1.49-1.85,2.32,1.44-1.02,2.13c-.15.31-.1.56-.02.6,0,0,.02.01.06.01.12,0,.31-.09.47-.29l1.49-1.85,2.32,1.44-1.02,2.13c-.15.31-.09.56-.02.6.01,0,.03.01.06.01h0c.12,0,.31-.09.47-.29l1.48-1.85,1.47.91,1.21-2.02-1.42-.88Z"/>
  </g>
</svg>