<?xml version="1.0" encoding="UTF-8"?>
<svg id="Layer_1" data-name="Layer 1" xmlns="http://www.w3.org/2000/svg" viewBox="0 0 100 100">
  <defs>
    <style>
      .cls-1 {
        fill: #fff;
      }

      .cls-1, .cls-2 {
        stroke-width: 0px;
      }

      .cls-2 {
        fill: #007878;
      }
    </style>
  </defs>
  <g id="dishwasher">
    <path class="cls-2" d="m77,43.77H23c-1.1,0-2-.92-2-2.05v-9.43c0-1.26,1-2.28,2.22-2.28h53.55c1.23,0,2.22,1.02,2.22,2.28v9.43c0,1.13-.9,2.05-2,2.05Zm-.33,1.12H23.33c-1.22,0-2.22,1.02-2.22,2.28v42.85c0,1.1.76,2.02,1.78,2.23v3.47c0,1.26,1,2.28,2.22,2.28h49.79c1.22,0,2.22-1.02,2.22-2.28v-3.47c1.01-.21,1.78-1.13,1.78-2.23v-42.85c0-1.26-1-2.28-2.22-2.28Z"/>
    <path class="cls-1" d="m45,51.46h10v1.14h-10v-1.14Zm31.67-4.29v42.85H23.33v-42.85h53.35Zm-20.56,3.95c0-.44-.35-.8-.78-.8h-10.67c-.43,0-.78.36-.78.8v1.82c0,.44.35.8.78.8h10.67c.43,0,.78-.36.78-.8v-1.82Zm15.04-15.47c-.55,0-1,.46-1,1.03s.45,1.03,1,1.03,1-.46,1-1.03-.45-1.03-1-1.03Zm-3.98,1.03c0,.57-.45,1.03-1,1.03s-1-.46-1-1.03.45-1.03,1-1.03,1,.46,1,1.03Zm0,0c0,.57-.45,1.03-1,1.03s-1-.46-1-1.03.45-1.03,1-1.03,1,.46,1,1.03Zm9.6-4.39v9.21H23.22v-9.2h53.55Zm-13.47,4.39c0-1.19-.95-2.17-2.11-2.17s-2.11.97-2.11,2.17.95,2.17,2.11,2.17,2.11-.97,2.11-2.17Zm4.98,0c0-1.19-.95-2.17-2.11-2.17s-2.11.97-2.11,2.17.95,2.17,2.11,2.17,2.11-.97,2.11-2.17Zm4.98,0c0-1.19-.95-2.17-2.11-2.17s-2.11.97-2.11,2.17.95,2.17,2.11,2.17,2.11-.97,2.11-2.17Zm-6.09,0c0,.57-.45,1.03-1,1.03s-1-.46-1-1.03.45-1.03,1-1.03,1,.46,1,1.03Zm-4.98,0c0,.57-.45,1.03-1,1.03s-1-.46-1-1.03.45-1.03,1-1.03,1,.46,1,1.03Zm12.7,55.64v3.41H25.11v-3.41h49.79Z"/>
  </g>
</svg>