<?xml version="1.0" encoding="UTF-8"?>
<svg id="Layer_1" data-name="Layer 1" xmlns="http://www.w3.org/2000/svg" viewBox="0 0 100 100">
  <defs>
    <style>
      .cls-1 {
        fill: #fff;
      }

      .cls-1, .cls-2 {
        stroke-width: 0px;
      }

      .cls-2 {
        fill: #007878;
      }
    </style>
  </defs>
  <g id="lawnmower">
    <path class="cls-2" d="m96.37,5.65l-25.42,62.94c.37.74.43,1.63.1,2.45l-2.56,6.34c4.96.71,8.79,4.99,8.79,10.15,0,5.65-4.6,10.25-10.25,10.25-2.85,0-5.43-1.17-7.29-3.05h-13.22v-6.64c0-.61-.5-1.1-1.1-1.1h-9.25c-.61,0-1.1.5-1.1,1.1v6.64h-13.59c-1.86,1.88-4.44,3.05-7.28,3.05-5.65,0-10.26-4.6-10.26-10.25s4.6-10.26,10.26-10.26c2.79,0,5.32,1.12,7.17,2.93h5.67v-2.67h-4.73c-.73,0-1.32-.59-1.32-1.32v-2.64c0-3.64,2.96-6.6,6.6-6.6h3.93v-1.21c0-.67.54-1.21,1.21-1.21h3.63v-.55c0-.55.44-.99.99-.99h6.82c.55,0,.99.44.99.99v.55h3.63c.67,0,1.21.54,1.21,1.21v1.21h8.17c1.34,0,2.42,1.09,2.42,2.42v6.82c0,.73-.59,1.32-1.32,1.32h-4.73v2.67h5.3c.47-.46.98-.87,1.53-1.23l4.11-10.17c.3-.74.87-1.32,1.6-1.63.1-.04.2-.08.3-.11L92.79,4.21c.4-.99,1.53-1.47,2.51-1.07.99.4,1.47,1.53,1.07,2.51Z"/>
    <path class="cls-1" d="m95.35,5.24l-25.19,62.37c-.23-.19-.48-.34-.77-.46-.25-.1-.5-.17-.76-.2L93.81,4.62c.17-.42.66-.63,1.08-.46.42.17.63.66.46,1.08Zm-26.35,64.38c-.08-.19-.24-.35-.43-.42s-.41-.08-.61,0c-.19.08-.34.24-.42.43l-3.24,8.02c.59-.17,1.21-.28,1.84-.33l2.87-7.1c.08-.19.08-.41,0-.6Zm-10.85,12.79H23.07c.87,1.51,1.37,3.26,1.37,5.12s-.47,3.52-1.31,5h9.73v-4.44c0-1.82,1.48-3.3,3.3-3.3h9.25c1.82,0,3.3,1.48,3.3,3.3v4.44h9.36c-.83-1.48-1.31-3.19-1.31-5s.5-3.61,1.37-5.12Zm16.93,5.12c0,4.44-3.61,8.05-8.05,8.05s-8.05-3.61-8.05-8.05,3.61-8.05,8.05-8.05,8.05,3.61,8.05,8.05Zm-1.6,0c0-3.55-2.89-6.45-6.44-6.45s-6.45,2.89-6.45,6.45,2.89,6.45,6.45,6.45,6.44-2.89,6.44-6.45Zm-1.23,0c0,2.88-2.34,5.22-5.21,5.22s-5.22-2.34-5.22-5.22,2.34-5.22,5.22-5.22,5.21,2.34,5.21,5.22Zm-3.52,0c0-.94-.76-1.7-1.7-1.7s-1.7.76-1.7,1.7.76,1.7,1.7,1.7,1.7-.76,1.7-1.7Zm-46.48,0c0,4.44-3.61,8.05-8.05,8.05s-8.05-3.61-8.05-8.05,3.61-8.05,8.05-8.05,8.05,3.61,8.05,8.05Zm-1.6,0c0-3.55-2.89-6.45-6.44-6.45s-6.45,2.89-6.45,6.45,2.89,6.45,6.45,6.45,6.44-2.89,6.44-6.45Zm-1.23,0c0,2.88-2.34,5.22-5.21,5.22s-5.22-2.34-5.22-5.22,2.34-5.22,5.22-5.22,5.21,2.34,5.21,5.22Zm-3.52,0c0-.94-.76-1.7-1.7-1.7s-1.7.76-1.7,1.7.76,1.7,1.7,1.7,1.7-.76,1.7-1.7Zm12.25-10v2.75h25.31v-2.75h-25.31Zm-4.95-3.96c0-2.43,1.97-4.4,4.4-4.4h30.6c.12,0,.22.1.22.22v5.94H23.19v-1.76Zm14.28-9.47h6.6v.44h-6.6v-.44Zm-4.84,1.65c0-.06.05-.11.11-.11h16.07c.06,0,.11.05.11.11v1.21h-16.29v-1.21Z"/>
  </g>
  <g>
    <path class="cls-2" d="m14.57,98h-.94c-.18,0-.34-.09-.44-.22-.02.02-.04.04-.06.05-.12.08-.26.12-.41.09l-.93-.16c-.14-.03-.27-.1-.35-.22-.02-.02-.03-.05-.04-.07-.02.02-.05.03-.07.04-.13.06-.28.07-.42.02l-.88-.32c-.17-.06-.29-.2-.33-.36-.15.07-.33.06-.49-.02l-.82-.47c-.13-.07-.22-.19-.25-.33,0-.03-.01-.05-.01-.08-.16.04-.34,0-.48-.11l-.72-.6c-.14-.12-.2-.29-.19-.45-.03,0-.06,0-.08,0-.14-.01-.28-.08-.37-.19l-.61-.72c-.12-.14-.15-.32-.11-.48-.17-.02-.32-.11-.41-.27l-.47-.82c-.07-.13-.09-.27-.05-.41,0-.03.02-.05.03-.08-.03,0-.05-.02-.08-.03-.13-.06-.23-.17-.28-.31l-.32-.88c-.06-.17-.03-.35.06-.49-.02-.01-.05-.03-.07-.04-.12-.08-.2-.21-.22-.35l-.16-.93c-.03-.18.03-.35.14-.47-.13-.1-.22-.26-.22-.44v-.94c0-.18.09-.34.22-.44-.02-.02-.04-.04-.05-.06-.08-.12-.11-.26-.09-.4l.16-.93c.03-.14.1-.27.22-.35.02-.02.05-.03.07-.04-.09-.14-.12-.32-.06-.49l.32-.89c.05-.13.15-.24.28-.3.03-.01.05-.02.08-.03-.01-.03-.02-.05-.03-.08-.04-.14-.02-.29.05-.41l.47-.82c.09-.16.25-.25.41-.27-.04-.16,0-.34.11-.48l.61-.72c.09-.11.22-.18.37-.19.03,0,.06,0,.08,0,0-.03,0-.06,0-.08.01-.14.08-.27.19-.37l.72-.6c.11-.09.25-.14.4-.12.03,0,.06,0,.08.01,0-.03,0-.05.02-.08.04-.14.13-.26.25-.33l.82-.47c.16-.09.34-.09.49-.02.05-.16.16-.3.33-.36l.89-.32c.14-.05.28-.04.41.02.03.01.05.03.07.04.07-.15.22-.26.39-.29l.93-.16c.14-.03.29,0,.41.09.02.02.04.03.06.05.1-.13.26-.22.44-.22h.94c.18,0,.34.09.44.22.02-.02.04-.04.07-.05.12-.08.26-.11.4-.09l.93.16c.18.03.32.14.39.29.02-.02.05-.03.07-.04.13-.06.28-.07.41-.02l.88.32c.14.05.25.15.31.28.01.03.02.05.03.08.15-.07.33-.06.49.02l.82.47c.13.07.22.19.25.33,0,.03.01.05.02.08.03,0,.06-.01.08-.01.15-.01.28.03.39.13l.72.6c.14.12.2.29.19.45.03,0,.05,0,.08,0,.15.01.28.08.37.19l.6.72c.09.11.14.25.13.4,0,.03,0,.05-.01.08.17.02.32.11.41.27l.47.82c.09.16.09.34.03.49.03,0,.05.02.08.03.13.06.23.17.28.31l.32.88c.06.17.03.35-.06.49.15.07.26.21.3.39l.16.93c.03.14,0,.29-.09.4-.02.02-.03.05-.05.07.13.1.22.26.22.44v.94c0,.18-.09.34-.22.44.02.02.04.04.05.07.08.12.11.26.09.41l-.16.93c-.03.18-.15.32-.3.39.09.14.12.32.06.49l-.32.89c-.05.13-.15.24-.28.31-.03.01-.05.02-.08.03.07.15.06.33-.03.49l-.47.82c-.09.16-.24.25-.41.27,0,.03.01.05.01.08.01.15-.03.29-.13.4l-.6.72c-.09.11-.23.18-.37.19-.03,0-.05,0-.08,0,.01.17-.05.34-.19.45l-.72.61c-.11.09-.25.14-.39.12-.03,0-.06,0-.08-.01,0,.03,0,.05-.02.08-.04.14-.13.26-.25.33l-.82.47c-.16.09-.34.09-.49.03,0,.03-.02.05-.03.08-.06.13-.17.23-.31.28l-.89.32c-.13.05-.28.04-.41-.02-.03-.01-.05-.03-.07-.04-.07.15-.22.26-.39.29l-.93.16c-.14.03-.29,0-.41-.09-.02-.02-.04-.03-.06-.05-.1.13-.26.22-.44.22Z"/>
    <path class="cls-1" d="m14.06,82.66c-2.59,0-4.69,2.1-4.69,4.69s2.1,4.69,4.69,4.69,4.69-2.11,4.69-4.69-2.1-4.69-4.69-4.69Zm0,6.83c-1.18,0-2.14-.96-2.14-2.14s.96-2.14,2.14-2.14,2.14.96,2.14,2.14-.96,2.14-2.14,2.14Zm.01-9.16c-3.87,0-7.03,3.15-7.03,7.03s3.15,7.03,7.03,7.03,7.03-3.15,7.03-7.03-3.15-7.03-7.03-7.03Zm-.01,12.82c-3.2,0-5.81-2.61-5.81-5.81s2.61-5.81,5.81-5.81,5.81,2.61,5.81,5.81-2.61,5.81-5.81,5.81Zm9.41-5.09l.02-.3h.58v-.75h-.57l-.02-.3c0-.1-.01-.2-.02-.29l-.03-.3.56-.1-.13-.74-.56.1-.07-.29c-.02-.1-.05-.19-.08-.29l-.08-.29.53-.19-.26-.7-.53.19-.12-.27c-.04-.09-.08-.18-.12-.27l-.13-.27.48-.27-.38-.65-.48.27-.17-.25c-.05-.08-.11-.17-.17-.25l-.17-.24.42-.35-.48-.58-.42.35-.21-.22c-.07-.07-.14-.14-.21-.21l-.22-.2.35-.42-.57-.48-.35.41-.24-.18c-.08-.06-.16-.12-.24-.18l-.24-.17.26-.46-.65-.37-.26.45-.27-.13c-.09-.05-.18-.09-.27-.13l-.27-.12.18-.49-.7-.26-.18.49-.29-.09c-.1-.03-.19-.06-.29-.08l-.29-.07.09-.51-.74-.13-.09.5-.29-.03c-.1-.01-.2-.02-.3-.02l-.3-.02v-.51h-.75v.51l-.3.02c-.1,0-.2.01-.3.02l-.3.03-.09-.5-.74.13.08.49-.29.07c-.1.02-.2.05-.3.08l-.29.08-.17-.46-.7.26.17.46-.27.12c-.09.04-.19.08-.28.13l-.26.13-.25-.43-.65.38.25.43-.25.17c-.09.06-.17.12-.25.18l-.24.18-.32-.38-.57.48.32.38-.22.21c-.07.07-.14.14-.21.21l-.21.22-.38-.32-.48.57.38.32-.18.24c-.06.08-.12.17-.18.25l-.17.25-.43-.25-.38.65.43.24-.13.27c-.05.09-.09.18-.13.28l-.12.27-.46-.17-.26.7.46.17-.08.29c-.03.1-.05.2-.08.3l-.07.29-.5-.09-.13.74.5.09-.03.3c-.01.1-.02.2-.02.3l-.02.3h-.51v.75h.51l.02.3c0,.1.01.2.03.3l.03.3-.5.09.13.74.51-.09.07.29c.02.1.05.2.08.3l.08.29-.48.18.26.7.49-.18.12.27c.04.1.08.18.13.27l.13.27-.45.26.38.65.46-.27.17.25c.05.08.11.16.17.24l.18.24-.41.35.48.58.42-.35.2.22c.07.07.14.14.21.2l.22.21-.35.42.57.49.35-.42.24.18c.08.06.16.12.24.17l.25.17-.27.48.65.37.28-.48.26.13c.09.05.18.08.27.12l.28.12-.19.52.7.26.19-.52.29.08c.09.03.19.06.29.08l.29.07-.1.55.74.13.1-.56.3.03c.1,0,.19.02.29.02l.3.02v.57h.75v-.57l.3-.02c.1,0,.19-.01.29-.02l.3-.04.1.57.74-.13-.11-.57.29-.07c.1-.02.19-.05.28-.07l.29-.09.2.55.7-.26-.2-.55.27-.12c.09-.04.18-.08.27-.12l.27-.13.29.5.65-.38-.3-.5.25-.17c.08-.06.15-.11.23-.17l.24-.18.38.45.57-.49-.37-.45.21-.21c.07-.07.14-.14.21-.21l.21-.21.45.38.48-.58-.45-.38.18-.24c.06-.08.11-.16.17-.24l.17-.25.5.29.38-.65-.5-.29.13-.27c.04-.08.09-.18.13-.27l.12-.27.55.2.26-.7-.54-.2.08-.29c.02-.1.05-.19.07-.29l.07-.29.57.1.13-.74-.57-.1.04-.3c.01-.1.02-.19.02-.29Zm-9.4,8.56c-5.11,0-9.26-4.15-9.26-9.26s4.15-9.26,9.26-9.26,9.26,4.15,9.26,9.26-4.15,9.26-9.26,9.26Z"/>
  </g>
  <g>
    <path class="cls-2" d="m67.41,98h-.94c-.18,0-.34-.09-.44-.22-.02.02-.04.04-.06.05-.12.08-.26.12-.41.09l-.93-.16c-.14-.03-.27-.1-.35-.22-.02-.02-.03-.05-.04-.07-.02.02-.05.03-.07.04-.13.06-.28.07-.42.02l-.88-.32c-.17-.06-.29-.2-.33-.36-.15.07-.33.06-.49-.02l-.82-.47c-.13-.07-.22-.19-.25-.33,0-.03-.01-.05-.01-.08-.16.04-.34,0-.48-.11l-.72-.6c-.14-.12-.2-.29-.19-.45-.03,0-.06,0-.08,0-.14-.01-.28-.08-.37-.19l-.61-.72c-.12-.14-.15-.32-.11-.48-.17-.02-.32-.11-.41-.27l-.47-.82c-.07-.13-.09-.27-.05-.41,0-.03.02-.05.03-.08-.03,0-.05-.02-.08-.03-.13-.06-.23-.17-.28-.31l-.32-.88c-.06-.17-.03-.35.06-.49-.02-.01-.05-.03-.07-.04-.12-.08-.2-.21-.22-.35l-.16-.93c-.03-.18.03-.35.14-.47-.13-.1-.22-.26-.22-.44v-.94c0-.18.09-.34.22-.44-.02-.02-.04-.04-.05-.06-.08-.12-.11-.26-.09-.4l.16-.93c.03-.14.1-.27.22-.35.02-.02.05-.03.07-.04-.09-.14-.12-.32-.06-.49l.32-.89c.05-.13.15-.24.28-.3.03-.01.05-.02.08-.03-.01-.03-.02-.05-.03-.08-.04-.14-.02-.29.05-.41l.47-.82c.09-.16.25-.25.41-.27-.04-.16,0-.34.11-.48l.61-.72c.09-.11.22-.18.37-.19.03,0,.06,0,.08,0,0-.03,0-.06,0-.08.01-.14.08-.27.19-.37l.72-.6c.11-.09.25-.14.4-.12.03,0,.06,0,.08.01,0-.03,0-.05.02-.08.04-.14.13-.26.25-.33l.82-.47c.16-.09.34-.09.49-.02.05-.16.16-.3.33-.36l.89-.32c.14-.05.28-.04.41.02.03.01.05.03.07.04.07-.15.22-.26.39-.29l.93-.16c.14-.03.29,0,.41.09.02.02.04.03.06.05.1-.13.26-.22.44-.22h.94c.18,0,.34.09.44.22.02-.02.04-.04.07-.05.12-.08.26-.11.4-.09l.93.16c.18.03.32.14.39.29.02-.02.05-.03.07-.04.13-.06.28-.07.41-.02l.88.32c.14.05.25.15.31.28.01.03.02.05.03.08.15-.07.33-.06.49.02l.82.47c.13.07.22.19.25.33,0,.03.01.05.02.08.03,0,.06-.01.08-.01.15-.01.28.03.39.13l.72.6c.14.12.2.29.19.45.03,0,.05,0,.08,0,.15.01.28.08.37.19l.6.72c.09.11.14.25.13.4,0,.03,0,.05-.01.08.17.02.32.11.41.27l.47.82c.09.16.09.34.03.49.03,0,.05.02.08.03.13.06.23.17.28.31l.32.88c.06.17.03.35-.06.49.15.07.26.21.3.39l.16.93c.03.14,0,.29-.09.4-.02.02-.03.05-.05.07.13.1.22.26.22.44v.94c0,.18-.09.34-.22.44.02.02.04.04.05.07.08.12.11.26.09.41l-.16.93c-.03.18-.15.32-.3.39.09.14.12.32.06.49l-.32.89c-.05.13-.15.24-.28.31-.03.01-.05.02-.08.03.07.15.06.33-.03.49l-.47.82c-.09.16-.24.25-.41.27,0,.03.01.05.01.08.01.15-.03.29-.13.4l-.6.72c-.09.11-.23.18-.37.19-.03,0-.05,0-.08,0,.01.17-.05.34-.19.45l-.72.61c-.11.09-.25.14-.39.12-.03,0-.06,0-.08-.01,0,.03,0,.05-.02.08-.04.14-.13.26-.25.33l-.82.47c-.16.09-.34.09-.49.03,0,.03-.02.05-.03.08-.06.13-.17.23-.31.28l-.89.32c-.13.05-.28.04-.41-.02-.03-.01-.05-.03-.07-.04-.07.15-.22.26-.39.29l-.93.16c-.14.03-.29,0-.41-.09-.02-.02-.04-.03-.06-.05-.1.13-.26.22-.44.22Z"/>
    <path class="cls-1" d="m66.9,82.66c-2.59,0-4.69,2.1-4.69,4.69s2.1,4.69,4.69,4.69,4.69-2.11,4.69-4.69-2.1-4.69-4.69-4.69Zm0,6.83c-1.18,0-2.14-.96-2.14-2.14s.96-2.14,2.14-2.14,2.14.96,2.14,2.14-.96,2.14-2.14,2.14Zm.01-9.16c-3.87,0-7.03,3.15-7.03,7.03s3.15,7.03,7.03,7.03,7.03-3.15,7.03-7.03-3.15-7.03-7.03-7.03Zm-.01,12.82c-3.2,0-5.81-2.61-5.81-5.81s2.61-5.81,5.81-5.81,5.81,2.61,5.81,5.81-2.61,5.81-5.81,5.81Zm9.41-5.09l.02-.3h.58v-.75h-.57l-.02-.3c0-.1-.01-.2-.02-.29l-.03-.3.56-.1-.13-.74-.56.1-.07-.29c-.02-.1-.05-.19-.08-.29l-.08-.29.53-.19-.26-.7-.53.19-.12-.27c-.04-.09-.08-.18-.12-.27l-.13-.27.48-.27-.38-.65-.48.27-.17-.25c-.05-.08-.11-.17-.17-.25l-.17-.24.42-.35-.48-.58-.42.35-.21-.22c-.07-.07-.14-.14-.21-.21l-.22-.2.35-.42-.57-.48-.35.41-.24-.18c-.08-.06-.16-.12-.24-.18l-.24-.17.26-.46-.65-.37-.26.45-.27-.13c-.09-.05-.18-.09-.27-.13l-.27-.12.18-.49-.7-.26-.18.49-.29-.09c-.1-.03-.19-.06-.29-.08l-.29-.07.09-.51-.74-.13-.09.5-.29-.03c-.1-.01-.2-.02-.3-.02l-.3-.02v-.51h-.75v.51l-.3.02c-.1,0-.2.01-.3.02l-.3.03-.09-.5-.74.13.08.49-.29.07c-.1.02-.2.05-.3.08l-.29.08-.17-.46-.7.26.17.46-.27.12c-.09.04-.19.08-.28.13l-.26.13-.25-.43-.65.38.25.43-.25.17c-.09.06-.17.12-.25.18l-.24.18-.32-.38-.57.48.32.38-.22.21c-.07.07-.14.14-.21.21l-.21.22-.38-.32-.48.57.38.32-.18.24c-.06.08-.12.17-.18.25l-.17.25-.43-.25-.38.65.43.24-.13.27c-.05.09-.09.18-.13.28l-.12.27-.46-.17-.26.7.46.17-.08.29c-.03.1-.05.2-.08.3l-.07.29-.5-.09-.13.74.5.09-.03.3c-.01.1-.02.2-.02.3l-.02.3h-.51v.75h.51l.02.3c0,.1.01.2.03.3l.03.3-.5.09.13.74.51-.09.07.29c.02.1.05.2.08.3l.08.29-.48.18.26.7.49-.18.12.27c.04.1.08.18.13.27l.13.27-.45.26.38.65.46-.27.17.25c.05.08.11.16.17.24l.18.24-.41.35.48.58.42-.35.2.22c.07.07.14.14.21.2l.22.21-.35.42.57.49.35-.42.24.18c.08.06.16.12.24.17l.25.17-.27.48.65.37.28-.48.26.13c.09.05.18.08.27.12l.28.12-.19.52.7.26.19-.52.29.08c.09.03.19.06.29.08l.29.07-.1.55.74.13.1-.56.3.03c.1,0,.19.02.29.02l.3.02v.57h.75v-.57l.3-.02c.1,0,.19-.01.29-.02l.3-.04.1.57.74-.13-.11-.57.29-.07c.1-.02.19-.05.28-.07l.29-.09.2.55.7-.26-.2-.55.27-.12c.09-.04.18-.08.27-.12l.27-.13.29.5.65-.38-.3-.5.25-.17c.08-.06.15-.11.23-.17l.24-.18.38.45.57-.49-.37-.45.21-.21c.07-.07.14-.14.21-.21l.21-.21.45.38.48-.58-.45-.38.18-.24c.06-.08.11-.16.17-.24l.17-.25.5.29.38-.65-.5-.29.13-.27c.04-.08.09-.18.13-.27l.12-.27.55.2.26-.7-.54-.2.08-.29c.02-.1.05-.19.07-.29l.07-.29.57.1.13-.74-.57-.1.04-.3c.01-.1.02-.19.02-.29Zm-9.4,8.56c-5.11,0-9.26-4.15-9.26-9.26s4.15-9.26,9.26-9.26,9.26,4.15,9.26,9.26-4.15,9.26-9.26,9.26Z"/>
  </g>
</svg>